<svg width="240" height="108" viewBox="0 0 240 108" fill="none" xmlns="http://www.w3.org/2000/svg">
<mask id="mask0_2665_1089" style="mask-type:luminance" maskUnits="userSpaceOnUse" x="4" y="8" width="229" height="70">
<path d="M21.1279 42.0001L232.615 8.22656L180.204 77.0567H24.5017L4.78516 44.8398L21.1279 42.0001Z" fill="white"/>
</mask>
<g mask="url(#mask0_2665_1089)">
<path d="M231.56 -15.9883L0 4.34863L8.43723 101.158L239.997 80.8212L231.56 -15.9883Z" fill="url(#paint0_linear_2665_1089)"/>
</g>
<path d="M45.203 92.1322C44.8083 91.9246 44.4982 91.6322 44.282 91.2548C44.0659 90.8774 43.9531 90.4435 43.9531 89.9435V86.8491C43.9531 86.3586 44.0659 85.934 44.282 85.5567C44.4982 85.1793 44.8083 84.8963 45.203 84.6888C45.5977 84.4812 46.0582 84.3774 46.5751 84.3774C47.092 84.3774 47.5525 84.4812 47.9566 84.6793C48.3513 84.8774 48.6614 85.1699 48.8775 85.5378C49.0937 85.9057 49.2065 86.3303 49.2065 86.8114C49.2065 86.8491 49.1971 86.8774 49.1689 86.9057C49.1501 86.9246 49.1219 86.9435 49.0937 86.9435L48.5204 86.9812C48.4453 86.9812 48.4077 86.9435 48.4077 86.8774V86.8397C48.4077 86.3114 48.2385 85.8869 47.9002 85.5661C47.5619 85.2454 47.1202 85.085 46.5657 85.085C46.0112 85.085 45.5695 85.2454 45.2312 85.5661C44.8929 85.8869 44.7237 86.3114 44.7237 86.8397V89.9906C44.7237 90.5189 44.8929 90.934 45.2312 91.2642C45.5695 91.5944 46.0112 91.7454 46.5657 91.7454C47.1202 91.7454 47.5619 91.585 47.9002 91.2642C48.2385 90.9435 48.4077 90.5189 48.4077 89.9906V89.9718C48.4077 89.9057 48.4453 89.868 48.5204 89.868L49.0937 89.9057C49.1689 89.9057 49.2065 89.9435 49.2065 90.0095C49.2065 90.5001 49.0937 90.9246 48.8775 91.2925C48.6614 91.6605 48.3513 91.9529 47.9566 92.151C47.5619 92.3491 47.1014 92.4529 46.5751 92.4529C46.0488 92.4529 45.5977 92.3491 45.203 92.1416V92.1322Z" fill="#333132"/>
<path d="M51.593 92.0189C51.2077 91.7453 50.9351 91.3585 50.7848 90.8774C50.6814 90.5284 50.625 90.0755 50.625 89.5001C50.625 88.9246 50.6814 88.4623 50.7848 88.1321C50.9257 87.651 51.1889 87.2736 51.5836 87.0001C51.9689 86.7265 52.4388 86.585 52.9932 86.585C53.5477 86.585 53.98 86.7265 54.3653 87.0001C54.7506 87.2736 55.0138 87.651 55.1547 88.1227C55.2581 88.4435 55.3145 88.9057 55.3145 89.5001C55.3145 90.0944 55.2581 90.5661 55.1547 90.8774C55.0138 91.368 54.7506 91.7453 54.3653 92.0189C53.98 92.2925 53.5195 92.434 52.9838 92.434C52.4482 92.434 51.9877 92.2925 51.593 92.0189ZM53.9048 91.434C54.1586 91.2359 54.3277 90.9718 54.4217 90.6321C54.4875 90.3585 54.5251 89.9812 54.5251 89.5001C54.5251 89.0189 54.4969 88.6321 54.4311 88.368C54.3371 88.0284 54.168 87.7642 53.9142 87.5661C53.6605 87.368 53.341 87.2642 52.9838 87.2642C52.6267 87.2642 52.3072 87.368 52.0535 87.5661C51.7997 87.7642 51.6306 88.0284 51.5366 88.368C51.4802 88.6321 51.4426 89.0095 51.4426 89.5001C51.4426 89.9906 51.4708 90.368 51.5366 90.6321C51.6212 90.9718 51.7903 91.2359 52.0441 91.434C52.2978 91.6321 52.6173 91.7359 52.9932 91.7359C53.3691 91.7359 53.6605 91.6416 53.9142 91.434H53.9048Z" fill="#333132"/>
<path d="M56.9219 92.2264V84.5849C56.9219 84.5094 56.9595 84.4717 57.0346 84.4717H57.6079C57.6831 84.4717 57.7207 84.5094 57.7207 84.5849V92.2264C57.7207 92.3019 57.6831 92.3396 57.6079 92.3396H57.0346C56.9595 92.3396 56.9219 92.3019 56.9219 92.2264Z" fill="#333132"/>
<path d="M60.2687 92.0189C59.8834 91.7453 59.6109 91.3585 59.4605 90.8774C59.3572 90.5284 59.3008 90.0755 59.3008 89.5001C59.3008 88.9246 59.3572 88.4623 59.4605 88.1321C59.6015 87.651 59.8647 87.2736 60.2594 87.0001C60.6447 86.7265 61.1146 86.585 61.669 86.585C62.2235 86.585 62.6558 86.7265 63.0411 87.0001C63.4264 87.2736 63.6895 87.651 63.8305 88.1227C63.9339 88.4435 63.9903 88.9057 63.9903 89.5001C63.9903 90.0944 63.9339 90.5661 63.8305 90.8774C63.6895 91.368 63.4264 91.7453 63.0411 92.0189C62.6558 92.2925 62.1953 92.434 61.6596 92.434C61.1239 92.434 60.6635 92.2925 60.2687 92.0189ZM62.5806 91.434C62.8343 91.2359 63.0035 90.9718 63.0975 90.6321C63.1633 90.3585 63.2009 89.9812 63.2009 89.5001C63.2009 89.0189 63.1727 88.6321 63.1069 88.368C63.0129 88.0284 62.8437 87.7642 62.59 87.5661C62.3363 87.368 62.0167 87.2642 61.6596 87.2642C61.3025 87.2642 60.983 87.368 60.7292 87.5661C60.4755 87.7642 60.3063 88.0284 60.2124 88.368C60.156 88.6321 60.1184 89.0095 60.1184 89.5001C60.1184 89.9906 60.1466 90.368 60.2124 90.6321C60.2969 90.9718 60.4661 91.2359 60.7198 91.434C60.9736 91.6321 61.2931 91.7359 61.669 91.7359C62.0449 91.7359 62.3363 91.6416 62.59 91.434H62.5806Z" fill="#333132"/>
<path d="M72.6523 87.0851C72.9812 87.4247 73.141 87.887 73.141 88.4625V92.2266C73.141 92.3021 73.1034 92.3398 73.0282 92.3398H72.4644C72.3892 92.3398 72.3516 92.3021 72.3516 92.2266V88.6229C72.3516 88.2078 72.2388 87.887 71.9945 87.6417C71.7595 87.3964 71.4494 87.2738 71.0735 87.2738C70.6976 87.2738 70.3593 87.3964 70.1149 87.6323C69.8706 87.8681 69.7484 88.1983 69.7484 88.5946V92.2266C69.7484 92.3021 69.7108 92.3398 69.6356 92.3398H69.0624C68.9872 92.3398 68.9496 92.3021 68.9496 92.2266V88.6229C68.9496 88.2078 68.8368 87.887 68.6019 87.6417C68.3669 87.3964 68.0568 87.2738 67.6715 87.2738C67.2862 87.2738 66.9573 87.3964 66.7223 87.6323C66.4874 87.8681 66.3652 88.1983 66.3652 88.5946V92.2266C66.3652 92.3021 66.3276 92.3398 66.2524 92.3398H65.6792C65.604 92.3398 65.5664 92.3021 65.5664 92.2266V86.7644C65.5664 86.6889 65.604 86.6511 65.6792 86.6511H66.2524C66.3276 86.6511 66.3652 86.6889 66.3652 86.7644V87.2172C66.3652 87.2172 66.3652 87.2455 66.384 87.2455C66.3934 87.2455 66.4122 87.2455 66.4216 87.2266C66.5814 87.0096 66.7975 86.8493 67.0513 86.7361C67.305 86.6229 67.5963 86.5757 67.9065 86.5757C68.2918 86.5757 68.6301 86.6512 68.9026 86.8115C69.1751 86.9719 69.3913 87.1983 69.5323 87.5002C69.5511 87.5379 69.5699 87.5379 69.5887 87.5002C69.7484 87.1889 69.9834 86.9625 70.2841 86.8115C70.5848 86.6606 70.9231 86.5851 71.299 86.5851C71.8629 86.5851 72.3046 86.7549 72.6241 87.0945L72.6523 87.0851Z" fill="#333132"/>
<path d="M79.3359 89.5C79.3359 90.1132 79.2795 90.5943 79.1761 90.9245C79.0352 91.3868 78.7908 91.7547 78.4337 92.0283C78.086 92.3019 77.6443 92.4339 77.1274 92.4339C76.8267 92.4339 76.5541 92.3773 76.3098 92.2547C76.0655 92.1321 75.8587 91.9622 75.6989 91.7358C75.6989 91.717 75.6802 91.717 75.6614 91.717C75.6426 91.717 75.6426 91.7264 75.6426 91.7453V92.2264C75.6426 92.3019 75.605 92.3396 75.5298 92.3396H74.9565C74.8813 92.3396 74.8438 92.3019 74.8438 92.2264V84.5849C74.8438 84.5094 74.8813 84.4717 74.9565 84.4717H75.5298C75.605 84.4717 75.6426 84.5094 75.6426 84.5849V87.2358C75.6426 87.2358 75.6426 87.2641 75.6614 87.2641C75.6708 87.2641 75.6896 87.2641 75.6989 87.2453C75.8587 87.0283 76.0655 86.8585 76.3098 86.7358C76.5541 86.6132 76.8267 86.5566 77.1274 86.5566C77.6537 86.5566 78.1048 86.6887 78.4619 86.9622C78.819 87.2358 79.0633 87.6132 79.2043 88.0943C79.2983 88.4339 79.3359 88.8962 79.3359 89.4905V89.5ZM78.4995 90.3302C78.5277 90.1321 78.5465 89.8585 78.5465 89.5C78.5465 89.1415 78.5277 88.849 78.4807 88.6415C78.4431 88.4339 78.3773 88.2453 78.2833 88.0849C78.1894 87.8396 78.0296 87.6415 77.8134 87.4905C77.5973 87.3396 77.3436 87.2641 77.0428 87.2641C76.7421 87.2641 76.5165 87.3396 76.3098 87.4905C76.103 87.6415 75.9527 87.849 75.8681 88.1038C75.7929 88.2641 75.7365 88.4434 75.7083 88.6415C75.6708 88.8396 75.6614 89.1321 75.6614 89.5C75.6614 89.8679 75.6801 90.1415 75.7083 90.3396C75.7459 90.5377 75.7929 90.717 75.8587 90.8773C75.9527 91.1415 76.103 91.349 76.3098 91.5094C76.5165 91.6698 76.7609 91.7453 77.0616 91.7453C77.3717 91.7453 77.6443 91.6698 77.8698 91.5094C78.0954 91.349 78.2551 91.1415 78.3491 90.8679C78.4243 90.7075 78.4713 90.5283 78.5089 90.3302H78.4995Z" fill="#333132"/>
<path d="M81.6477 92.0189C81.2623 91.7453 80.9898 91.3585 80.8394 90.8774C80.7361 90.5284 80.6797 90.0755 80.6797 89.5001C80.6797 88.9246 80.7361 88.4623 80.8394 88.1321C80.9804 87.651 81.2436 87.2736 81.6383 87.0001C82.0236 86.7265 82.4935 86.585 83.0479 86.585C83.6024 86.585 84.0347 86.7265 84.42 87.0001C84.8053 87.2736 85.0684 87.651 85.2094 88.1227C85.3128 88.4435 85.3692 88.9057 85.3692 89.5001C85.3692 90.0944 85.3128 90.5661 85.2094 90.8774C85.0684 91.368 84.8053 91.7453 84.42 92.0189C84.0347 92.2925 83.5742 92.434 83.0385 92.434C82.5029 92.434 82.0424 92.2925 81.6477 92.0189ZM83.9595 91.434C84.2132 91.2359 84.3824 90.9718 84.4764 90.6321C84.5422 90.3585 84.5798 89.9812 84.5798 89.5001C84.5798 89.0189 84.5516 88.6321 84.4858 88.368C84.3918 88.0284 84.2226 87.7642 83.9689 87.5661C83.7152 87.368 83.3956 87.2642 83.0385 87.2642C82.6814 87.2642 82.3619 87.368 82.1082 87.5661C81.8544 87.7642 81.6852 88.0284 81.5913 88.368C81.5349 88.6321 81.4973 89.0095 81.4973 89.5001C81.4973 89.9906 81.5255 90.368 81.5913 90.6321C81.6759 90.9718 81.845 91.2359 82.0988 91.434C82.3525 91.6321 82.672 91.7359 83.0479 91.7359C83.4238 91.7359 83.7152 91.6416 83.9689 91.434H83.9595Z" fill="#333132"/>
<path d="M90.7824 92.2547L88.6303 84.6038V84.566C88.6209 84.5094 88.6585 84.4811 88.7337 84.4811H89.3258C89.3915 84.4811 89.4291 84.5094 89.4479 84.566L91.1489 90.7264C91.1489 90.7264 91.1677 90.7453 91.1771 90.7453C91.1865 90.7453 91.1959 90.7453 91.2053 90.7264L92.7841 84.5755C92.8029 84.5094 92.8405 84.4717 92.9063 84.4717H93.5078C93.5735 84.4717 93.6205 84.5094 93.6299 84.5755L95.2745 90.7264C95.2745 90.7264 95.2933 90.7453 95.3027 90.7453C95.3121 90.7453 95.3215 90.7453 95.3309 90.7264L97.0319 84.566C97.0507 84.5094 97.0883 84.4811 97.1541 84.4811H97.7274C97.7274 84.4811 97.7931 84.4906 97.8119 84.5189C97.8307 84.5377 97.8401 84.566 97.8307 84.6038L95.7162 92.2547C95.6974 92.3113 95.6599 92.349 95.5941 92.349H95.002C94.9362 92.349 94.8892 92.3113 94.8798 92.2453L93.2446 85.9528C93.2446 85.9528 93.2258 85.9339 93.2164 85.9339C93.207 85.9339 93.1976 85.9339 93.1882 85.9528L91.5906 92.2453C91.5906 92.3113 91.5436 92.349 91.4685 92.349H90.9046C90.8482 92.349 90.8012 92.3207 90.7824 92.2547Z" fill="#333132"/>
<path d="M102.888 89.3306V89.689C102.888 89.7645 102.851 89.8023 102.776 89.8023H99.1575C99.1575 89.8023 99.1105 89.8211 99.1105 89.8494C99.1293 90.2645 99.1481 90.5287 99.1762 90.6513C99.2608 90.9909 99.43 91.2551 99.7025 91.4532C99.9751 91.6513 100.313 91.7456 100.736 91.7456C101.046 91.7456 101.328 91.6702 101.563 91.5287C101.798 91.3872 101.986 91.1796 102.127 90.9249C102.174 90.8589 102.221 90.84 102.287 90.8777L102.719 91.1324C102.776 91.1702 102.794 91.2174 102.766 91.2928C102.578 91.6513 102.296 91.9343 101.93 92.1419C101.554 92.3494 101.131 92.4532 100.642 92.4532C100.116 92.4532 99.6649 92.3211 99.3078 92.0664C98.9507 91.8117 98.6876 91.4721 98.5372 91.0287C98.4056 90.6702 98.3398 90.1513 98.3398 89.4815C98.3398 89.1702 98.3398 88.906 98.3586 88.7079C98.368 88.5098 98.3962 88.3306 98.4432 88.1702C98.5748 87.6796 98.8285 87.2928 99.2138 87.0004C99.5991 86.7079 100.06 86.5664 100.605 86.5664C101.281 86.5664 101.808 86.7362 102.174 87.0853C102.541 87.4343 102.766 87.9155 102.86 88.5475C102.888 88.7551 102.907 89.0192 102.907 89.3306H102.888ZM99.6837 87.5475C99.4394 87.7362 99.2796 87.9909 99.2044 88.3211C99.1574 88.4815 99.1293 88.7362 99.1105 89.0853C99.1105 89.1136 99.1293 89.1324 99.1575 89.1324H102.052C102.052 89.1324 102.099 89.1136 102.099 89.0853C102.08 88.7456 102.061 88.5098 102.033 88.3683C101.949 88.0287 101.789 87.7645 101.535 87.5664C101.281 87.3683 100.971 87.2645 100.586 87.2645C100.201 87.2645 99.9187 87.3589 99.6743 87.5475H99.6837Z" fill="#333132"/>
<path d="M105.113 92.1982C104.784 92.0661 104.539 91.8869 104.361 91.6605C104.182 91.434 104.098 91.1888 104.098 90.9057V90.7737C104.098 90.6982 104.135 90.6605 104.21 90.6605H104.746C104.821 90.6605 104.859 90.6982 104.859 90.7737V90.868C104.859 91.1133 104.99 91.3303 105.244 91.5095C105.498 91.6982 105.827 91.7831 106.212 91.7831C106.597 91.7831 106.917 91.6982 107.152 91.5189C107.387 91.3397 107.509 91.1227 107.509 90.8491C107.509 90.6605 107.443 90.5095 107.321 90.3869C107.199 90.2642 107.049 90.1699 106.889 90.1039C106.72 90.0378 106.457 89.9529 106.109 89.8491C105.695 89.7265 105.348 89.6133 105.075 89.4906C104.802 89.368 104.577 89.2076 104.398 88.9906C104.22 88.7737 104.126 88.5095 104.126 88.1793C104.126 87.6982 104.314 87.3208 104.69 87.0378C105.066 86.7548 105.554 86.6133 106.165 86.6133C106.579 86.6133 106.936 86.6793 107.255 86.8114C107.575 86.9435 107.819 87.1322 107.988 87.368C108.157 87.6039 108.242 87.868 108.242 88.1605V88.1982C108.242 88.2737 108.204 88.3114 108.129 88.3114H107.603C107.528 88.3114 107.49 88.2737 107.49 88.1982V88.1605C107.49 87.9057 107.368 87.6888 107.124 87.5189C106.879 87.3491 106.55 87.2642 106.146 87.2642C105.761 87.2642 105.46 87.3397 105.225 87.4906C104.99 87.6416 104.878 87.8586 104.878 88.1227C104.878 88.3774 104.99 88.5755 105.216 88.7076C105.442 88.8397 105.789 88.9812 106.259 89.1133C106.691 89.2454 107.039 89.3586 107.312 89.4718C107.584 89.585 107.81 89.7454 108.007 89.9623C108.204 90.1793 108.298 90.4529 108.298 90.802C108.298 91.2925 108.111 91.6793 107.725 91.9718C107.349 92.2642 106.842 92.4057 106.212 92.4057C105.799 92.4057 105.423 92.3397 105.094 92.2076L105.113 92.1982Z" fill="#333132"/>
<path d="M112.17 87.321H110.902C110.902 87.321 110.855 87.3399 110.855 87.3682V90.6795C110.855 91.038 110.939 91.2927 111.099 91.4342C111.259 91.5852 111.513 91.6512 111.851 91.6512H112.133C112.208 91.6512 112.246 91.689 112.246 91.7644V92.2267C112.246 92.3022 112.208 92.3399 112.133 92.3399C112.039 92.3399 111.907 92.3493 111.719 92.3493C111.184 92.3493 110.78 92.2456 110.498 92.0475C110.225 91.8493 110.084 91.472 110.084 90.9248V87.3588C110.084 87.3588 110.065 87.3116 110.037 87.3116H109.351C109.276 87.3116 109.238 87.2739 109.238 87.1984V86.7644C109.238 86.689 109.276 86.6512 109.351 86.6512H110.037C110.037 86.6512 110.084 86.6324 110.084 86.6041V85.3022C110.084 85.2267 110.122 85.189 110.197 85.189H110.742C110.817 85.189 110.855 85.2267 110.855 85.3022V86.6041C110.855 86.6041 110.873 86.6512 110.902 86.6512H112.17C112.246 86.6512 112.283 86.689 112.283 86.7644V87.1984C112.283 87.2739 112.246 87.3116 112.17 87.3116V87.321Z" fill="#333132"/>
<path d="M116.203 92.2264V84.5849C116.203 84.5094 116.241 84.4717 116.316 84.4717H116.889C116.964 84.4717 117.002 84.5094 117.002 84.5849V92.2264C117.002 92.3019 116.964 92.3396 116.889 92.3396H116.316C116.241 92.3396 116.203 92.3019 116.203 92.2264Z" fill="#333132"/>
<path d="M122.727 87.1038C123.084 87.4529 123.263 87.9246 123.263 88.5189V92.2265C123.263 92.3019 123.225 92.3397 123.15 92.3397H122.577C122.502 92.3397 122.464 92.3019 122.464 92.2265V88.6793C122.464 88.2642 122.342 87.934 122.088 87.6699C121.834 87.4057 121.515 87.2736 121.12 87.2736C120.725 87.2736 120.378 87.3963 120.124 87.6604C119.87 87.9151 119.748 88.2453 119.748 88.6604V92.2359C119.748 92.3114 119.71 92.3491 119.635 92.3491H119.062C118.987 92.3491 118.949 92.3114 118.949 92.2359V86.7736C118.949 86.6982 118.987 86.6604 119.062 86.6604H119.635C119.71 86.6604 119.748 86.6982 119.748 86.7736V87.2548C119.748 87.2548 119.748 87.2831 119.767 87.2925C119.776 87.2925 119.786 87.2925 119.795 87.2831C120.124 86.8208 120.631 86.585 121.308 86.585C121.91 86.585 122.379 86.7642 122.737 87.1133L122.727 87.1038Z" fill="#333132"/>
<path d="M127.416 87.321H126.148C126.148 87.321 126.101 87.3399 126.101 87.3682V90.6795C126.101 91.038 126.185 91.2927 126.345 91.4342C126.505 91.5852 126.759 91.6512 127.097 91.6512H127.379C127.454 91.6512 127.492 91.689 127.492 91.7644V92.2267C127.492 92.3022 127.454 92.3399 127.379 92.3399C127.285 92.3399 127.153 92.3493 126.965 92.3493C126.43 92.3493 126.026 92.2456 125.744 92.0475C125.471 91.8493 125.33 91.472 125.33 90.9248V87.3588C125.33 87.3588 125.311 87.3116 125.283 87.3116H124.597C124.522 87.3116 124.484 87.2739 124.484 87.1984V86.7644C124.484 86.689 124.522 86.6512 124.597 86.6512H125.283C125.283 86.6512 125.33 86.6324 125.33 86.6041V85.3022C125.33 85.2267 125.368 85.189 125.443 85.189H125.988C126.063 85.189 126.101 85.2267 126.101 85.3022V86.6041C126.101 86.6041 126.12 86.6512 126.148 86.6512H127.416C127.492 86.6512 127.529 86.689 127.529 86.7644V87.1984C127.529 87.2739 127.492 87.3116 127.416 87.3116V87.321Z" fill="#333132"/>
<path d="M133.279 89.3306V89.689C133.279 89.7645 133.241 89.8023 133.166 89.8023H129.548C129.548 89.8023 129.501 89.8211 129.501 89.8494C129.52 90.2645 129.539 90.5287 129.567 90.6513C129.651 90.9909 129.821 91.2551 130.093 91.4532C130.366 91.6513 130.704 91.7456 131.127 91.7456C131.437 91.7456 131.719 91.6702 131.954 91.5287C132.189 91.3872 132.377 91.1796 132.518 90.9249C132.565 90.8589 132.612 90.84 132.678 90.8777L133.11 91.1324C133.166 91.1702 133.185 91.2174 133.157 91.2928C132.969 91.6513 132.687 91.9343 132.32 92.1419C131.945 92.3494 131.522 92.4532 131.033 92.4532C130.507 92.4532 130.056 92.3211 129.698 92.0664C129.341 91.8117 129.078 91.4721 128.928 91.0287C128.796 90.6702 128.73 90.1513 128.73 89.4815C128.73 89.1702 128.73 88.906 128.749 88.7079C128.759 88.5098 128.787 88.3306 128.834 88.1702C128.965 87.6796 129.219 87.2928 129.604 87.0004C129.99 86.7079 130.45 86.5664 130.995 86.5664C131.672 86.5664 132.198 86.7362 132.565 87.0853C132.931 87.4343 133.157 87.9155 133.251 88.5475C133.279 88.7551 133.298 89.0192 133.298 89.3306H133.279ZM130.074 87.5475C129.83 87.7362 129.67 87.9909 129.595 88.3211C129.548 88.4815 129.52 88.7362 129.501 89.0853C129.501 89.1136 129.52 89.1324 129.548 89.1324H132.443C132.443 89.1324 132.49 89.1136 132.49 89.0853C132.471 88.7456 132.452 88.5098 132.424 88.3683C132.339 88.0287 132.179 87.7645 131.926 87.5664C131.672 87.3683 131.362 87.2645 130.977 87.2645C130.591 87.2645 130.309 87.3589 130.065 87.5475H130.074Z" fill="#333132"/>
<path d="M137.78 86.7453C137.837 86.7736 137.865 86.8208 137.846 86.8868L137.724 87.434C137.705 87.5095 137.649 87.5284 137.574 87.5001C137.452 87.4435 137.301 87.4246 137.141 87.4246H137C136.615 87.4529 136.296 87.5944 136.042 87.868C135.788 88.1416 135.666 88.4906 135.666 88.9057V92.217C135.666 92.2925 135.628 92.3302 135.553 92.3302H134.98C134.905 92.3302 134.867 92.2925 134.867 92.217V86.7548C134.867 86.6793 134.905 86.6416 134.98 86.6416H135.553C135.628 86.6416 135.666 86.6793 135.666 86.7548V87.4435C135.666 87.4435 135.666 87.4812 135.685 87.4812C135.694 87.4812 135.704 87.4812 135.713 87.4623C135.873 87.1887 136.07 86.9718 136.314 86.8114C136.559 86.6604 136.841 86.585 137.16 86.585C137.405 86.585 137.621 86.6321 137.799 86.7359L137.78 86.7453Z" fill="#333132"/>
<path d="M142.715 87.1038C143.073 87.4529 143.251 87.9246 143.251 88.5189V92.2265C143.251 92.3019 143.213 92.3397 143.138 92.3397H142.565C142.49 92.3397 142.452 92.3019 142.452 92.2265V88.6793C142.452 88.2642 142.33 87.934 142.076 87.6699C141.823 87.4057 141.503 87.2736 141.108 87.2736C140.714 87.2736 140.366 87.3963 140.112 87.6604C139.858 87.9151 139.736 88.2453 139.736 88.6604V92.2359C139.736 92.3114 139.699 92.3491 139.624 92.3491H139.05C138.975 92.3491 138.938 92.3114 138.938 92.2359V86.7736C138.938 86.6982 138.975 86.6604 139.05 86.6604H139.624C139.699 86.6604 139.736 86.6982 139.736 86.7736V87.2548C139.736 87.2548 139.736 87.2831 139.755 87.2925C139.765 87.2925 139.774 87.2925 139.783 87.2831C140.112 86.8208 140.62 86.585 141.296 86.585C141.898 86.585 142.368 86.7642 142.725 87.1133L142.715 87.1038Z" fill="#333132"/>
<path d="M148.474 87.0851C148.841 87.4342 149.019 87.887 149.019 88.453V92.2266C149.019 92.3021 148.982 92.3398 148.907 92.3398H148.333C148.258 92.3398 148.221 92.3021 148.221 92.2266V91.7644C148.221 91.7644 148.221 91.736 148.202 91.7266C148.192 91.7266 148.174 91.7266 148.164 91.736C147.976 91.9625 147.732 92.1323 147.441 92.2455C147.14 92.3587 146.811 92.4153 146.444 92.4153C145.918 92.4153 145.467 92.2832 145.11 92.0096C144.753 91.736 144.574 91.3304 144.574 90.7738C144.574 90.2172 144.781 89.7643 145.185 89.4436C145.589 89.1228 146.153 88.953 146.877 88.953H148.174C148.174 88.953 148.221 88.9342 148.221 88.9059V88.4813C148.221 88.0945 148.117 87.8021 147.901 87.5757C147.685 87.3587 147.356 87.2455 146.914 87.2455C146.557 87.2455 146.266 87.3115 146.04 87.453C145.815 87.5945 145.674 87.7832 145.627 88.0285C145.608 88.104 145.561 88.1417 145.495 88.1323L144.894 88.0568C144.809 88.0379 144.781 88.0096 144.79 87.9625C144.847 87.5474 145.072 87.1983 145.458 86.9436C145.843 86.6794 146.332 86.5474 146.914 86.5474C147.582 86.5474 148.108 86.7172 148.474 87.0662V87.0851ZM147.751 91.4153C148.07 91.1983 148.23 90.8964 148.23 90.5191V89.6417C148.23 89.6417 148.211 89.5945 148.183 89.5945H147.008C146.52 89.5945 146.115 89.6983 145.824 89.8964C145.523 90.0945 145.373 90.3776 145.373 90.736C145.373 91.0662 145.486 91.3115 145.711 91.4813C145.937 91.6511 146.238 91.736 146.604 91.736C147.046 91.736 147.422 91.6228 147.741 91.4059L147.751 91.4153Z" fill="#333132"/>
<path d="M153.069 87.321H151.8C151.8 87.321 151.753 87.3399 151.753 87.3682V90.6795C151.753 91.038 151.838 91.2927 151.997 91.4342C152.157 91.5852 152.411 91.6512 152.749 91.6512H153.031C153.106 91.6512 153.144 91.689 153.144 91.7644V92.2267C153.144 92.3022 153.106 92.3399 153.031 92.3399C152.937 92.3399 152.806 92.3493 152.618 92.3493C152.082 92.3493 151.678 92.2456 151.396 92.0475C151.123 91.8493 150.983 91.472 150.983 90.9248V87.3588C150.983 87.3588 150.964 87.3116 150.936 87.3116H150.25C150.174 87.3116 150.137 87.2739 150.137 87.1984V86.7644C150.137 86.689 150.174 86.6512 150.25 86.6512H150.936C150.936 86.6512 150.983 86.6324 150.983 86.6041V85.3022C150.983 85.2267 151.02 85.189 151.095 85.189H151.64C151.716 85.189 151.753 85.2267 151.753 85.3022V86.6041C151.753 86.6041 151.772 86.6512 151.8 86.6512H153.069C153.144 86.6512 153.182 86.689 153.182 86.7644V87.1984C153.182 87.2739 153.144 87.3116 153.069 87.3116V87.321Z" fill="#333132"/>
<path d="M154.807 85.4436C154.685 85.321 154.629 85.1701 154.629 84.9908C154.629 84.8116 154.685 84.6512 154.807 84.538C154.93 84.4248 155.08 84.3682 155.259 84.3682C155.437 84.3682 155.587 84.4248 155.71 84.538C155.832 84.6512 155.888 84.8021 155.888 84.9908C155.888 85.1795 155.832 85.321 155.71 85.4436C155.587 85.5663 155.437 85.6229 155.259 85.6229C155.08 85.6229 154.93 85.5663 154.807 85.4436ZM154.826 92.2172V86.755C154.826 86.6795 154.864 86.6418 154.939 86.6418H155.512C155.587 86.6418 155.625 86.6795 155.625 86.755V92.2172C155.625 92.2927 155.587 92.3304 155.512 92.3304H154.939C154.864 92.3304 154.826 92.2927 154.826 92.2172Z" fill="#333132"/>
<path d="M158.343 92.0189C157.958 91.7453 157.685 91.3585 157.535 90.8774C157.431 90.5284 157.375 90.0755 157.375 89.5001C157.375 88.9246 157.431 88.4623 157.535 88.1321C157.676 87.651 157.939 87.2736 158.334 87.0001C158.719 86.7265 159.189 86.585 159.743 86.585C160.298 86.585 160.73 86.7265 161.115 87.0001C161.501 87.2736 161.764 87.651 161.905 88.1227C162.008 88.4435 162.064 88.9057 162.064 89.5001C162.064 90.0944 162.008 90.5661 161.905 90.8774C161.764 91.368 161.501 91.7453 161.115 92.0189C160.73 92.2925 160.27 92.434 159.734 92.434C159.198 92.434 158.738 92.2925 158.343 92.0189ZM160.645 91.434C160.899 91.2359 161.068 90.9718 161.162 90.6321C161.228 90.3585 161.266 89.9812 161.266 89.5001C161.266 89.0189 161.237 88.6321 161.172 88.368C161.078 88.0284 160.909 87.7642 160.655 87.5661C160.401 87.368 160.082 87.2642 159.724 87.2642C159.367 87.2642 159.048 87.368 158.794 87.5661C158.54 87.7642 158.371 88.0284 158.277 88.368C158.221 88.6321 158.183 89.0095 158.183 89.5001C158.183 89.9906 158.211 90.368 158.277 90.6321C158.362 90.9718 158.531 91.2359 158.785 91.434C159.038 91.6321 159.358 91.7359 159.734 91.7359C160.11 91.7359 160.401 91.6416 160.655 91.434H160.645Z" fill="#333132"/>
<path d="M167.45 87.1038C167.807 87.4529 167.985 87.9246 167.985 88.5189V92.2265C167.985 92.3019 167.948 92.3397 167.873 92.3397H167.299C167.224 92.3397 167.187 92.3019 167.187 92.2265V88.6793C167.187 88.2642 167.064 87.934 166.811 87.6699C166.557 87.4057 166.237 87.2736 165.843 87.2736C165.448 87.2736 165.1 87.3963 164.847 87.6604C164.593 87.9151 164.471 88.2453 164.471 88.6604V92.2359C164.471 92.3114 164.433 92.3491 164.358 92.3491H163.785C163.709 92.3491 163.672 92.3114 163.672 92.2359V86.7736C163.672 86.6982 163.709 86.6604 163.785 86.6604H164.358C164.433 86.6604 164.471 86.6982 164.471 86.7736V87.2548C164.471 87.2548 164.471 87.2831 164.489 87.2925C164.499 87.2925 164.508 87.2925 164.518 87.2831C164.847 86.8208 165.354 86.585 166.031 86.585C166.632 86.585 167.102 86.7642 167.459 87.1133L167.45 87.1038Z" fill="#333132"/>
<path d="M173.22 87.0851C173.587 87.4342 173.765 87.887 173.765 88.453V92.2266C173.765 92.3021 173.728 92.3398 173.653 92.3398H173.079C173.004 92.3398 172.967 92.3021 172.967 92.2266V91.7644C172.967 91.7644 172.967 91.736 172.948 91.7266C172.938 91.7266 172.92 91.7266 172.91 91.736C172.722 91.9625 172.478 92.1323 172.187 92.2455C171.886 92.3587 171.557 92.4153 171.19 92.4153C170.664 92.4153 170.213 92.2832 169.856 92.0096C169.499 91.736 169.32 91.3304 169.32 90.7738C169.32 90.2172 169.527 89.7643 169.931 89.4436C170.335 89.1228 170.899 88.953 171.623 88.953H172.92C172.92 88.953 172.967 88.9342 172.967 88.9059V88.4813C172.967 88.0945 172.863 87.8021 172.647 87.5757C172.431 87.3587 172.102 87.2455 171.66 87.2455C171.303 87.2455 171.012 87.3115 170.786 87.453C170.561 87.5945 170.42 87.7832 170.373 88.0285C170.354 88.104 170.307 88.1417 170.241 88.1323L169.64 88.0568C169.555 88.0379 169.527 88.0096 169.536 87.9625C169.593 87.5474 169.818 87.1983 170.204 86.9436C170.589 86.6794 171.078 86.5474 171.66 86.5474C172.328 86.5474 172.854 86.7172 173.22 87.0662V87.0851ZM172.487 91.4153C172.807 91.1983 172.967 90.8964 172.967 90.5191V89.6417C172.967 89.6417 172.948 89.5945 172.92 89.5945H171.745C171.256 89.5945 170.852 89.6983 170.561 89.8964C170.26 90.0945 170.11 90.3776 170.11 90.736C170.11 91.0662 170.222 91.3115 170.448 91.4813C170.674 91.6511 170.974 91.736 171.341 91.736C171.783 91.736 172.158 91.6228 172.478 91.4059L172.487 91.4153Z" fill="#333132"/>
<path d="M175.43 92.2264V84.5849C175.43 84.5094 175.467 84.4717 175.542 84.4717H176.116C176.191 84.4717 176.229 84.5094 176.229 84.5849V92.2264C176.229 92.3019 176.191 92.3396 176.116 92.3396H175.542C175.467 92.3396 175.43 92.3019 175.43 92.2264Z" fill="#333132"/>
<path d="M58.999 98.0756V98.5567C58.999 98.6322 58.9615 98.6699 58.8863 98.6699H56.6966C56.6966 98.6699 56.6496 98.6888 56.6496 98.7171V105.717C56.6496 105.793 56.612 105.83 56.5368 105.83H55.9636C55.8884 105.83 55.8508 105.793 55.8508 105.717V98.7171C55.8508 98.7171 55.832 98.6699 55.8038 98.6699H53.6987C53.6235 98.6699 53.5859 98.6322 53.5859 98.5567V98.0756C53.5859 98.0001 53.6235 97.9624 53.6987 97.9624H58.8863C58.9615 97.9624 58.999 98.0001 58.999 98.0756Z" fill="#333132"/>
<path d="M63.9782 102.821V103.179C63.9782 103.255 63.9406 103.292 63.8654 103.292H60.2473C60.2473 103.292 60.2003 103.311 60.2003 103.34C60.2191 103.755 60.2379 104.019 60.2661 104.142C60.3507 104.481 60.5198 104.745 60.7924 104.943C61.0649 105.142 61.4032 105.236 61.8261 105.236C62.1362 105.236 62.4182 105.16 62.6531 105.019C62.8881 104.877 63.076 104.67 63.217 104.415C63.264 104.349 63.311 104.33 63.3767 104.368L63.809 104.623C63.8654 104.66 63.8842 104.708 63.856 104.783C63.6681 105.142 63.3861 105.425 63.0196 105.632C62.6437 105.84 62.2208 105.943 61.7321 105.943C61.2059 105.943 60.7548 105.811 60.3977 105.557C60.0405 105.302 59.7774 104.962 59.627 104.519C59.4955 104.16 59.4297 103.642 59.4297 102.972C59.4297 102.66 59.4297 102.396 59.4485 102.198C59.4579 102 59.4861 101.821 59.5331 101.66C59.6646 101.17 59.9184 100.783 60.3037 100.491C60.689 100.198 61.1495 100.057 61.6945 100.057C62.3712 100.057 62.8975 100.226 63.264 100.576C63.6305 100.925 63.856 101.406 63.95 102.038C63.9782 102.245 63.997 102.509 63.997 102.821H63.9782ZM60.7736 101.038C60.5292 101.226 60.3695 101.481 60.2943 101.811C60.2473 101.972 60.2191 102.226 60.2003 102.576C60.2003 102.604 60.2191 102.623 60.2473 102.623H63.1418C63.1418 102.623 63.1888 102.604 63.1888 102.576C63.17 102.236 63.1512 102 63.123 101.859C63.0384 101.519 62.8787 101.255 62.6249 101.057C62.3712 100.859 62.0611 100.755 61.6757 100.755C61.2904 100.755 61.0085 100.849 60.7642 101.038H60.7736Z" fill="#333132"/>
<path d="M68.4797 100.236C68.5361 100.264 68.5643 100.312 68.5455 100.378L68.4233 100.925C68.4045 101 68.3481 101.019 68.273 100.991C68.1508 100.934 68.0004 100.915 67.8407 100.915H67.6997C67.3144 100.944 66.9949 101.085 66.7411 101.359C66.4874 101.632 66.3652 101.981 66.3652 102.396V105.708C66.3652 105.783 66.3276 105.821 66.2524 105.821H65.6792C65.604 105.821 65.5664 105.783 65.5664 105.708V100.245C65.5664 100.17 65.604 100.132 65.6792 100.132H66.2524C66.3276 100.132 66.3652 100.17 66.3652 100.245V100.934C66.3652 100.934 66.3652 100.972 66.384 100.972C66.3934 100.972 66.4028 100.972 66.4122 100.953C66.572 100.679 66.7693 100.462 67.0137 100.302C67.258 100.151 67.5399 100.076 67.8595 100.076C68.1038 100.076 68.32 100.123 68.4985 100.227L68.4797 100.236Z" fill="#333132"/>
<path d="M76.6875 100.566C77.0164 100.906 77.1762 101.368 77.1762 101.943V105.708C77.1762 105.783 77.1386 105.821 77.0634 105.821H76.4995C76.4243 105.821 76.3867 105.783 76.3867 105.708V102.104C76.3867 101.689 76.274 101.368 76.0296 101.123C75.7947 100.877 75.4846 100.755 75.1087 100.755C74.7327 100.755 74.3944 100.877 74.1501 101.113C73.9057 101.349 73.7836 101.679 73.7836 102.076V105.708C73.7836 105.783 73.746 105.821 73.6708 105.821H73.0975C73.0223 105.821 72.9848 105.783 72.9848 105.708V102.104C72.9848 101.689 72.872 101.368 72.637 101.123C72.4021 100.877 72.092 100.755 71.7067 100.755C71.3214 100.755 70.9924 100.877 70.7575 101.113C70.5225 101.349 70.4004 101.679 70.4004 102.076V105.708C70.4004 105.783 70.3628 105.821 70.2876 105.821H69.7143C69.6392 105.821 69.6016 105.783 69.6016 105.708V100.245C69.6016 100.17 69.6392 100.132 69.7143 100.132H70.2876C70.3628 100.132 70.4004 100.17 70.4004 100.245V100.698C70.4004 100.698 70.4004 100.726 70.4192 100.726C70.4286 100.726 70.4474 100.726 70.4568 100.708C70.6165 100.491 70.8327 100.33 71.0864 100.217C71.3401 100.104 71.6315 100.057 71.9416 100.057C72.3269 100.057 72.6652 100.132 72.9378 100.292C73.2103 100.453 73.4265 100.679 73.5674 100.981C73.5862 101.019 73.605 101.019 73.6238 100.981C73.7836 100.67 74.0185 100.443 74.3192 100.292C74.62 100.142 74.9583 100.066 75.3342 100.066C75.8981 100.066 76.3398 100.236 76.6593 100.576L76.6875 100.566Z" fill="#333132"/>
<path d="M78.9793 98.9246C78.8572 98.802 78.8008 98.651 78.8008 98.4718C78.8008 98.2925 78.8572 98.1321 78.9793 98.0189C79.1015 97.9057 79.2519 97.8491 79.4304 97.8491C79.609 97.8491 79.7594 97.9057 79.8815 98.0189C80.0037 98.1321 80.0601 98.2831 80.0601 98.4718C80.0601 98.6604 80.0037 98.802 79.8815 98.9246C79.7594 99.0472 79.609 99.1038 79.4304 99.1038C79.2519 99.1038 79.1015 99.0472 78.9793 98.9246ZM78.9981 105.708V100.245C78.9981 100.17 79.0357 100.132 79.1109 100.132H79.6842C79.7594 100.132 79.7969 100.17 79.7969 100.245V105.708C79.7969 105.783 79.7594 105.821 79.6842 105.821H79.1109C79.0357 105.821 78.9981 105.783 78.9981 105.708Z" fill="#333132"/>
<path d="M85.5201 100.595C85.8772 100.944 86.0558 101.415 86.0558 102.01V105.717C86.0558 105.793 86.0182 105.83 85.943 105.83H85.3697C85.2945 105.83 85.2569 105.793 85.2569 105.717V102.17C85.2569 101.755 85.1348 101.425 84.881 101.161C84.6273 100.896 84.3078 100.764 83.9131 100.764C83.5184 100.764 83.1706 100.887 82.9169 101.151C82.6632 101.406 82.541 101.736 82.541 102.151V105.727C82.541 105.802 82.5034 105.84 82.4282 105.84H81.855C81.7798 105.84 81.7422 105.802 81.7422 105.727V100.264C81.7422 100.189 81.7798 100.151 81.855 100.151H82.4282C82.5034 100.151 82.541 100.189 82.541 100.264V100.745C82.541 100.745 82.541 100.774 82.5598 100.783C82.5692 100.783 82.5786 100.783 82.588 100.774C82.9169 100.312 83.4244 100.076 84.101 100.076C84.7025 100.076 85.1724 100.255 85.5295 100.604L85.5201 100.595Z" fill="#333132"/>
<path d="M91.2907 100.566C91.6572 100.915 91.8358 101.368 91.8358 101.934V105.708C91.8358 105.783 91.7982 105.821 91.723 105.821H91.1497C91.0745 105.821 91.037 105.783 91.037 105.708V105.245C91.037 105.245 91.037 105.217 91.0182 105.208C91.0088 105.208 90.99 105.208 90.9806 105.217C90.7926 105.443 90.5483 105.613 90.2569 105.726C89.9562 105.84 89.6273 105.896 89.2608 105.896C88.7345 105.896 88.2834 105.764 87.9263 105.491C87.5692 105.217 87.3906 104.811 87.3906 104.255C87.3906 103.698 87.5974 103.245 88.0015 102.925C88.4056 102.604 88.9695 102.434 89.6931 102.434H90.99C90.99 102.434 91.037 102.415 91.037 102.387V101.962C91.037 101.575 90.9336 101.283 90.7174 101.057C90.5013 100.84 90.1724 100.726 89.7307 100.726C89.3736 100.726 89.0822 100.792 88.8567 100.934C88.6311 101.075 88.4902 101.264 88.4432 101.509C88.4244 101.585 88.3774 101.623 88.3116 101.613L87.7102 101.538C87.6256 101.519 87.5974 101.491 87.6068 101.443C87.6632 101.028 87.8887 100.679 88.274 100.425C88.6593 100.16 89.148 100.028 89.7307 100.028C90.3979 100.028 90.9242 100.198 91.2907 100.547V100.566ZM90.5671 104.906C90.8866 104.689 91.0464 104.387 91.0464 104.009V103.132C91.0464 103.132 91.0276 103.085 90.9994 103.085H89.8246C89.336 103.085 88.9319 103.189 88.6405 103.387C88.3398 103.585 88.1894 103.868 88.1894 104.226C88.1894 104.557 88.3022 104.802 88.5278 104.972C88.7533 105.142 89.054 105.226 89.4205 105.226C89.8622 105.226 90.2381 105.113 90.5577 104.896L90.5671 104.906Z" fill="#333132"/>
<path d="M93.5 105.717V98.0756C93.5 98.0001 93.5376 97.9624 93.6128 97.9624H94.186C94.2612 97.9624 94.2988 98.0001 94.2988 98.0756V105.717C94.2988 105.793 94.2612 105.83 94.186 105.83H93.6128C93.5376 105.83 93.5 105.793 93.5 105.717Z" fill="#333132"/>
<path d="M98.5811 106.925C98.2146 106.359 97.9232 105.661 97.6977 104.821C97.4721 103.981 97.3594 103.095 97.3594 102.17C97.3594 101.245 97.4721 100.321 97.6977 99.4624C97.9232 98.6039 98.224 97.887 98.5999 97.3209C98.6281 97.2738 98.6751 97.2549 98.7314 97.2549H99.2671C99.2671 97.2549 99.3423 97.2643 99.3611 97.2926C99.3799 97.3209 99.3705 97.3492 99.3517 97.387C99.0322 97.9624 98.769 98.67 98.5717 99.519C98.3743 100.368 98.271 101.245 98.271 102.17C98.271 103.095 98.3743 103.944 98.5717 104.774C98.769 105.604 99.0322 106.302 99.3517 106.868C99.3705 106.896 99.3705 106.925 99.3705 106.934C99.3705 106.981 99.3329 107 99.2671 107H98.7033C98.6469 107 98.6093 106.981 98.5717 106.934L98.5811 106.925Z" fill="#333132"/>
<path d="M105.951 98.5569C106.346 98.9626 106.553 99.4909 106.553 100.151C106.553 100.812 106.346 101.33 105.942 101.727C105.538 102.123 105.002 102.321 104.335 102.321H102.154C102.154 102.321 102.107 102.34 102.107 102.368V105.717C102.107 105.793 102.07 105.83 101.995 105.83H101.421C101.346 105.83 101.309 105.793 101.309 105.717V98.0663C101.309 97.9909 101.346 97.9531 101.421 97.9531H104.363C105.021 97.9531 105.547 98.1512 105.951 98.5569ZM105.35 101.246C105.622 100.972 105.763 100.613 105.763 100.161C105.763 99.7078 105.622 99.3399 105.35 99.0569C105.077 98.7833 104.711 98.6418 104.278 98.6418H102.154C102.154 98.6418 102.107 98.6607 102.107 98.689V101.613C102.107 101.613 102.126 101.661 102.154 101.661H104.278C104.72 101.661 105.077 101.529 105.35 101.255V101.246Z" fill="#333132"/>
<path d="M110.78 100.236C110.837 100.264 110.865 100.312 110.846 100.378L110.724 100.925C110.705 101 110.649 101.019 110.574 100.991C110.452 100.934 110.301 100.915 110.141 100.915H110C109.615 100.944 109.296 101.085 109.042 101.359C108.788 101.632 108.666 101.981 108.666 102.396V105.708C108.666 105.783 108.628 105.821 108.553 105.821H107.98C107.905 105.821 107.867 105.783 107.867 105.708V100.245C107.867 100.17 107.905 100.132 107.98 100.132H108.553C108.628 100.132 108.666 100.17 108.666 100.245V100.934C108.666 100.934 108.666 100.972 108.685 100.972C108.694 100.972 108.704 100.972 108.713 100.953C108.873 100.679 109.07 100.462 109.314 100.302C109.559 100.151 109.841 100.076 110.16 100.076C110.405 100.076 110.621 100.123 110.799 100.227L110.78 100.236Z" fill="#333132"/>
<path d="M112.022 98.9246C111.9 98.802 111.844 98.651 111.844 98.4718C111.844 98.2925 111.9 98.1321 112.022 98.0189C112.144 97.9057 112.295 97.8491 112.473 97.8491C112.652 97.8491 112.802 97.9057 112.924 98.0189C113.047 98.1321 113.103 98.2831 113.103 98.4718C113.103 98.6604 113.047 98.802 112.924 98.9246C112.802 99.0472 112.652 99.1038 112.473 99.1038C112.295 99.1038 112.144 99.0472 112.022 98.9246ZM112.041 105.708V100.245C112.041 100.17 112.079 100.132 112.154 100.132H112.727C112.802 100.132 112.84 100.17 112.84 100.245V105.708C112.84 105.783 112.802 105.821 112.727 105.821H112.154C112.079 105.821 112.041 105.783 112.041 105.708Z" fill="#333132"/>
<path d="M116.1 105.736L114.267 100.264V100.217C114.258 100.16 114.286 100.142 114.361 100.142H115C115.066 100.142 115.113 100.17 115.132 100.236L116.532 104.642C116.532 104.642 116.551 104.66 116.57 104.66C116.589 104.66 116.598 104.66 116.607 104.642L118.008 100.236C118.026 100.179 118.073 100.142 118.139 100.142H118.778C118.863 100.151 118.891 100.198 118.872 100.274L117.04 105.736C117.021 105.793 116.974 105.83 116.908 105.83H116.26C116.194 105.83 116.147 105.802 116.128 105.736H116.1Z" fill="#333132"/>
<path d="M123.498 100.566C123.864 100.915 124.043 101.368 124.043 101.934V105.708C124.043 105.783 124.005 105.821 123.93 105.821H123.357C123.282 105.821 123.244 105.783 123.244 105.708V105.245C123.244 105.245 123.244 105.217 123.225 105.208C123.216 105.208 123.197 105.208 123.188 105.217C123 105.443 122.755 105.613 122.464 105.726C122.163 105.84 121.834 105.896 121.468 105.896C120.942 105.896 120.49 105.764 120.133 105.491C119.776 105.217 119.598 104.811 119.598 104.255C119.598 103.698 119.804 103.245 120.209 102.925C120.613 102.604 121.176 102.434 121.9 102.434H123.197C123.197 102.434 123.244 102.415 123.244 102.387V101.962C123.244 101.575 123.141 101.283 122.924 101.057C122.708 100.84 122.379 100.726 121.938 100.726C121.581 100.726 121.289 100.792 121.064 100.934C120.838 101.075 120.697 101.264 120.65 101.509C120.631 101.585 120.584 101.623 120.519 101.613L119.917 101.538C119.833 101.519 119.804 101.491 119.814 101.443C119.87 101.028 120.096 100.679 120.481 100.425C120.866 100.16 121.355 100.028 121.938 100.028C122.605 100.028 123.131 100.198 123.498 100.547V100.566ZM122.774 104.906C123.094 104.689 123.253 104.387 123.253 104.009V103.132C123.253 103.132 123.235 103.085 123.206 103.085H122.032C121.543 103.085 121.139 103.189 120.848 103.387C120.547 103.585 120.396 103.868 120.396 104.226C120.396 104.557 120.509 104.802 120.735 104.972C120.96 105.142 121.261 105.226 121.628 105.226C122.069 105.226 122.445 105.113 122.765 104.896L122.774 104.906Z" fill="#333132"/>
<path d="M128.081 100.802H126.812C126.812 100.802 126.765 100.821 126.765 100.849V104.16C126.765 104.519 126.849 104.774 127.009 104.915C127.169 105.066 127.423 105.132 127.761 105.132H128.043C128.118 105.132 128.156 105.17 128.156 105.245V105.708C128.156 105.783 128.118 105.821 128.043 105.821C127.949 105.821 127.817 105.83 127.629 105.83C127.094 105.83 126.69 105.727 126.408 105.528C126.135 105.33 125.994 104.953 125.994 104.406V100.84C125.994 100.84 125.975 100.793 125.947 100.793H125.261C125.186 100.793 125.148 100.755 125.148 100.679V100.245C125.148 100.17 125.186 100.132 125.261 100.132H125.947C125.947 100.132 125.994 100.113 125.994 100.085V98.7831C125.994 98.7077 126.032 98.6699 126.107 98.6699H126.652C126.727 98.6699 126.765 98.7077 126.765 98.7831V100.085C126.765 100.085 126.784 100.132 126.812 100.132H128.081C128.156 100.132 128.193 100.17 128.193 100.245V100.679C128.193 100.755 128.156 100.793 128.081 100.793V100.802Z" fill="#333132"/>
<path d="M133.947 102.821V103.179C133.947 103.255 133.909 103.292 133.834 103.292H130.216C130.216 103.292 130.169 103.311 130.169 103.34C130.188 103.755 130.207 104.019 130.235 104.142C130.319 104.481 130.489 104.745 130.761 104.943C131.034 105.142 131.372 105.236 131.795 105.236C132.105 105.236 132.387 105.16 132.622 105.019C132.857 104.877 133.045 104.67 133.186 104.415C133.233 104.349 133.28 104.33 133.345 104.368L133.778 104.623C133.834 104.66 133.853 104.708 133.825 104.783C133.637 105.142 133.355 105.425 132.988 105.632C132.612 105.84 132.19 105.943 131.701 105.943C131.175 105.943 130.724 105.811 130.366 105.557C130.009 105.302 129.746 104.962 129.596 104.519C129.464 104.16 129.398 103.642 129.398 102.972C129.398 102.66 129.398 102.396 129.417 102.198C129.427 102 129.455 101.821 129.502 101.66C129.633 101.17 129.887 100.783 130.272 100.491C130.658 100.198 131.118 100.057 131.663 100.057C132.34 100.057 132.866 100.226 133.233 100.576C133.599 100.925 133.825 101.406 133.919 102.038C133.947 102.245 133.966 102.509 133.966 102.821H133.947ZM130.742 101.038C130.498 101.226 130.338 101.481 130.263 101.811C130.216 101.972 130.188 102.226 130.169 102.576C130.169 102.604 130.188 102.623 130.216 102.623H133.111C133.111 102.623 133.158 102.604 133.158 102.576C133.139 102.236 133.12 102 133.092 101.859C133.007 101.519 132.847 101.255 132.594 101.057C132.34 100.859 132.03 100.755 131.645 100.755C131.259 100.755 130.977 100.849 130.733 101.038H130.742Z" fill="#333132"/>
<path d="M136.388 97.3209C136.745 97.887 137.036 98.5851 137.262 99.4247C137.487 100.264 137.6 101.151 137.6 102.076C137.6 103 137.487 103.934 137.262 104.793C137.036 105.651 136.736 106.368 136.36 106.925C136.332 106.972 136.285 106.991 136.228 106.991H135.702C135.702 106.991 135.627 106.981 135.608 106.953C135.589 106.925 135.599 106.896 135.617 106.859C135.937 106.283 136.2 105.576 136.397 104.727C136.595 103.878 136.698 103.01 136.698 102.095C136.698 101.179 136.595 100.321 136.397 99.4907C136.2 98.6605 135.937 97.9624 135.617 97.387C135.599 97.3587 135.598 97.3304 135.598 97.3209C135.598 97.2738 135.636 97.2549 135.702 97.2549H136.266C136.322 97.2549 136.36 97.2738 136.397 97.3209H136.388Z" fill="#333132"/>
<path d="M140.844 105.717V98.0756C140.844 98.0001 140.881 97.9624 140.957 97.9624H141.53C141.605 97.9624 141.643 98.0001 141.643 98.0756V105.085C141.643 105.085 141.661 105.132 141.69 105.132H145.637C145.712 105.132 145.749 105.17 145.749 105.245V105.717C145.749 105.793 145.712 105.83 145.637 105.83H140.957C140.881 105.83 140.844 105.793 140.844 105.717Z" fill="#333132"/>
<path d="M147.143 98.9246C147.021 98.802 146.965 98.651 146.965 98.4718C146.965 98.2925 147.021 98.1321 147.143 98.0189C147.266 97.9057 147.416 97.8491 147.594 97.8491C147.773 97.8491 147.923 97.9057 148.046 98.0189C148.168 98.1321 148.224 98.2831 148.224 98.4718C148.224 98.6604 148.168 98.802 148.046 98.9246C147.923 99.0472 147.773 99.1038 147.594 99.1038C147.416 99.1038 147.266 99.0472 147.143 98.9246ZM147.162 105.708V100.245C147.162 100.17 147.2 100.132 147.275 100.132H147.848C147.923 100.132 147.961 100.17 147.961 100.245V105.708C147.961 105.783 147.923 105.821 147.848 105.821H147.275C147.2 105.821 147.162 105.783 147.162 105.708Z" fill="#333132"/>
<path d="M156.961 100.566C157.29 100.906 157.45 101.368 157.45 101.943V105.708C157.45 105.783 157.412 105.821 157.337 105.821H156.773C156.698 105.821 156.66 105.783 156.66 105.708V102.104C156.66 101.689 156.547 101.368 156.303 101.123C156.068 100.877 155.758 100.755 155.382 100.755C155.006 100.755 154.668 100.877 154.424 101.113C154.179 101.349 154.057 101.679 154.057 102.076V105.708C154.057 105.783 154.019 105.821 153.944 105.821H153.371C153.296 105.821 153.258 105.783 153.258 105.708V102.104C153.258 101.689 153.145 101.368 152.91 101.123C152.676 100.877 152.365 100.755 151.98 100.755C151.595 100.755 151.266 100.877 151.031 101.113C150.796 101.349 150.674 101.679 150.674 102.076V105.708C150.674 105.783 150.636 105.821 150.561 105.821H149.988C149.913 105.821 149.875 105.783 149.875 105.708V100.245C149.875 100.17 149.913 100.132 149.988 100.132H150.561C150.636 100.132 150.674 100.17 150.674 100.245V100.698C150.674 100.698 150.674 100.726 150.693 100.726C150.702 100.726 150.721 100.726 150.73 100.708C150.89 100.491 151.106 100.33 151.36 100.217C151.614 100.104 151.905 100.057 152.215 100.057C152.6 100.057 152.939 100.132 153.211 100.292C153.484 100.453 153.7 100.679 153.841 100.981C153.86 101.019 153.878 101.019 153.897 100.981C154.057 100.67 154.292 100.443 154.593 100.292C154.893 100.142 155.232 100.066 155.608 100.066C156.172 100.066 156.613 100.236 156.933 100.576L156.961 100.566Z" fill="#333132"/>
<path d="M159.245 98.9246C159.123 98.802 159.066 98.651 159.066 98.4718C159.066 98.2925 159.123 98.1321 159.245 98.0189C159.367 97.9057 159.517 97.8491 159.696 97.8491C159.875 97.8491 160.025 97.9057 160.147 98.0189C160.269 98.1321 160.326 98.2831 160.326 98.4718C160.326 98.6604 160.269 98.802 160.147 98.9246C160.025 99.0472 159.875 99.1038 159.696 99.1038C159.517 99.1038 159.367 99.0472 159.245 98.9246ZM159.273 105.708V100.245C159.273 100.17 159.311 100.132 159.386 100.132H159.959C160.034 100.132 160.072 100.17 160.072 100.245V105.708C160.072 105.783 160.034 105.821 159.959 105.821H159.386C159.311 105.821 159.273 105.783 159.273 105.708Z" fill="#333132"/>
<path d="M164.44 100.802H163.171C163.171 100.802 163.124 100.821 163.124 100.849V104.16C163.124 104.519 163.209 104.774 163.369 104.915C163.528 105.066 163.782 105.132 164.12 105.132H164.402C164.478 105.132 164.515 105.17 164.515 105.245V105.708C164.515 105.783 164.478 105.821 164.402 105.821C164.308 105.821 164.177 105.83 163.989 105.83C163.453 105.83 163.049 105.727 162.767 105.528C162.495 105.33 162.354 104.953 162.354 104.406V100.84C162.354 100.84 162.335 100.793 162.307 100.793H161.621C161.545 100.793 161.508 100.755 161.508 100.679V100.245C161.508 100.17 161.545 100.132 161.621 100.132H162.307C162.307 100.132 162.354 100.113 162.354 100.085V98.7831C162.354 98.7077 162.391 98.6699 162.466 98.6699H163.011C163.087 98.6699 163.124 98.7077 163.124 98.7831V100.085C163.124 100.085 163.143 100.132 163.171 100.132H164.44C164.515 100.132 164.553 100.17 164.553 100.245V100.679C164.553 100.755 164.515 100.793 164.44 100.793V100.802Z" fill="#333132"/>
<path d="M170.306 102.821V103.179C170.306 103.255 170.269 103.292 170.194 103.292H166.575C166.575 103.292 166.528 103.311 166.528 103.34C166.547 103.755 166.566 104.019 166.594 104.142C166.679 104.481 166.848 104.745 167.12 104.943C167.393 105.142 167.731 105.236 168.154 105.236C168.464 105.236 168.746 105.16 168.981 105.019C169.216 104.877 169.404 104.67 169.545 104.415C169.592 104.349 169.639 104.33 169.705 104.368L170.137 104.623C170.194 104.66 170.212 104.708 170.184 104.783C169.996 105.142 169.714 105.425 169.348 105.632C168.972 105.84 168.549 105.943 168.06 105.943C167.534 105.943 167.083 105.811 166.726 105.557C166.369 105.302 166.106 104.962 165.955 104.519C165.824 104.16 165.758 103.642 165.758 102.972C165.758 102.66 165.758 102.396 165.777 102.198C165.786 102 165.814 101.821 165.861 101.66C165.993 101.17 166.246 100.783 166.632 100.491C167.017 100.198 167.478 100.057 168.023 100.057C168.699 100.057 169.226 100.226 169.592 100.576C169.959 100.925 170.184 101.406 170.278 102.038C170.306 102.245 170.325 102.509 170.325 102.821H170.306ZM167.102 101.038C166.857 101.226 166.698 101.481 166.622 101.811C166.575 101.972 166.547 102.226 166.528 102.576C166.528 102.604 166.547 102.623 166.575 102.623H169.47C169.47 102.623 169.517 102.604 169.517 102.576C169.498 102.236 169.479 102 169.451 101.859C169.367 101.519 169.207 101.255 168.953 101.057C168.699 100.859 168.389 100.755 168.004 100.755C167.619 100.755 167.337 100.849 167.092 101.038H167.102Z" fill="#333132"/>
<path d="M175.512 97.9624H176.085C176.16 97.9624 176.198 98.0001 176.198 98.0756V105.717C176.198 105.793 176.16 105.83 176.085 105.83H175.512C175.436 105.83 175.399 105.793 175.399 105.717V105.245C175.399 105.245 175.399 105.217 175.38 105.217C175.371 105.217 175.352 105.217 175.342 105.236C175.183 105.453 174.976 105.623 174.732 105.745C174.487 105.868 174.215 105.925 173.923 105.925C173.397 105.925 172.965 105.793 172.608 105.519C172.251 105.245 172.006 104.887 171.875 104.415C171.771 104.076 171.715 103.604 171.715 102.991C171.715 102.377 171.762 101.906 171.846 101.594C171.978 101.113 172.232 100.736 172.589 100.462C172.946 100.189 173.388 100.057 173.923 100.057C174.215 100.057 174.487 100.113 174.732 100.227C174.976 100.34 175.183 100.51 175.342 100.727C175.361 100.745 175.371 100.745 175.38 100.745C175.389 100.745 175.399 100.736 175.399 100.717V98.0756C175.399 98.0001 175.436 97.9624 175.512 97.9624ZM175.342 103.83C175.371 103.632 175.389 103.349 175.389 102.991C175.389 102.632 175.371 102.349 175.342 102.142C175.314 101.934 175.258 101.755 175.183 101.594C175.089 101.34 174.948 101.132 174.741 100.981C174.534 100.83 174.29 100.755 174.008 100.755C173.707 100.755 173.453 100.83 173.237 100.981C173.021 101.132 172.861 101.33 172.767 101.576C172.673 101.736 172.608 101.925 172.57 102.132C172.532 102.34 172.504 102.623 172.504 102.991C172.504 103.359 172.523 103.623 172.551 103.821C172.579 104.019 172.636 104.198 172.711 104.359C172.805 104.632 172.955 104.84 173.19 105C173.416 105.161 173.688 105.236 173.998 105.236C174.309 105.236 174.544 105.161 174.75 105C174.948 104.84 175.098 104.632 175.201 104.368C175.267 104.217 175.314 104.038 175.342 103.84V103.83Z" fill="#333132"/>
<path d="M2.41509 40.9624L236.043 3.71716L237.726 1.51904L1.34375 39.1983L2.41509 40.9624Z" fill="#2EBEEF"/>
<path d="M79.2596 77.0566L89.926 54.9528L100.517 77.0566H111.306L123.824 45.6792H112.969L104.53 67.8773L94.7471 45.6792H85.0956L75.2467 67.8773L66.8075 45.6792H55.9531L68.4709 77.0566" fill="white"/>
<path d="M139.06 45.6792H128.562V77.0566H139.06V45.6792Z" fill="white"/>
<path d="M143.277 45.5757V53.8115H158.145V77.0568H168.642V53.8115H197.897L204.175 45.5757H143.277Z" fill="white"/>
<path d="M53.1257 68.7078V64.5946H43.3144V69.9248H21.0417V52.9154H43.3144V58.2456H53.1257V54.1324C53.1257 49.472 49.3572 45.689 44.7147 45.689H19.9986C15.1587 45.689 11.2305 49.6324 11.2305 54.4909V55.3776L24.5001 77.0663H45.8894C49.9774 76.4909 53.1257 72.9814 53.1257 68.7173V68.7078Z" fill="white"/>
<defs>
<linearGradient id="paint0_linear_2665_1089" x1="-115.324" y1="37.7307" x2="309.552" y2="0.701465" gradientUnits="userSpaceOnUse">
<stop stop-color="#00B16B"/>
<stop offset="0.35" stop-color="#006DB7"/>
<stop offset="0.65" stop-color="#8E278F"/>
<stop offset="1" stop-color="#F04C23"/>
</linearGradient>
</defs>
</svg>
